<svg width="250" height="76" viewBox="0 0 250 76" fill="none" xmlns="http://www.w3.org/2000/svg">
<g clip-path="url(#clip0_4045_5542)">
<path d="M99.0293 40.7273C98.4332 41.8352 97.4966 42.7727 96.1342 43.4545C94.8569 44.1364 93.2391 44.4773 91.3658 44.4773H87.8747V52.8295H82.1696V29.4773H91.3658C93.2391 29.4773 94.7718 29.8182 96.049 30.4148C97.3263 31.0966 98.2629 31.9489 98.9441 33.0568C99.6253 34.1648 99.8808 35.5284 99.8808 36.9773C99.9659 38.3409 99.6253 39.5341 99.0293 40.7273ZM93.4094 39.108C93.9203 38.5966 94.1757 37.9148 94.1757 36.9773C94.1757 36.0398 93.9203 35.358 93.4094 34.8466C92.8985 34.3352 92.047 34.0795 90.9401 34.0795H87.8747V39.9602H90.9401C92.047 39.875 92.8133 39.6193 93.4094 39.108Z" fill="#E73137"/>
<path d="M111.121 34.9318C112.142 34.3352 113.249 34.0795 114.441 34.0795V40.1307H112.909C111.461 40.1307 110.439 40.4716 109.758 41.0682C109.077 41.6648 108.736 42.7727 108.736 44.3068V52.9148H103.031V34.25H108.736V37.3182C109.247 36.2955 110.099 35.5284 111.121 34.9318Z" fill="#E73137"/>
<path d="M120.657 51.892C119.21 51.125 118.103 50.017 117.251 48.5682C116.4 47.1193 115.974 45.4148 115.974 43.5398C115.974 41.6648 116.4 39.9602 117.251 38.5114C118.103 37.0625 119.21 35.9545 120.743 35.1875C122.19 34.4205 123.808 33.9943 125.681 33.9943C127.469 33.9943 129.172 34.4205 130.62 35.1875C132.067 35.9545 133.26 37.0625 134.111 38.5114C134.963 39.9602 135.388 41.6648 135.388 43.5398C135.388 45.4148 134.963 47.1193 134.111 48.5682C133.26 50.017 132.067 51.125 130.62 51.892C129.172 52.6591 127.469 53.0852 125.681 53.0852C123.723 53.0852 122.105 52.6591 120.657 51.892ZM128.321 46.9489C129.087 46.1818 129.428 44.9886 129.428 43.5398C129.428 42.0909 129.087 40.8977 128.321 40.1307C127.555 39.3636 126.703 38.9375 125.596 38.9375C124.489 38.9375 123.552 39.3636 122.871 40.1307C122.105 40.8977 121.764 42.0909 121.764 43.5398C121.764 44.9886 122.105 46.1818 122.871 46.9489C123.638 47.7159 124.489 48.142 125.596 48.142C126.703 48.142 127.555 47.8011 128.321 46.9489Z" fill="#E73137"/>
<path d="M142.541 32.7159V39.5341H150.545V42.6023H142.541V49.6761H151.482V52.7443H138.709V29.6477H151.482V32.7159H142.541V32.7159Z" fill="#575756"/>
<path d="M169.278 35.1023C170.385 35.6989 171.322 36.5511 171.918 37.7443C172.599 38.9375 172.854 40.3011 172.854 42.0057V52.8295H169.108V42.6023C169.108 40.983 168.682 39.7045 167.916 38.8523C167.064 38 165.957 37.5739 164.595 37.5739C163.147 37.5739 162.04 38 161.189 38.8523C160.337 39.7045 159.911 40.983 159.911 42.6023V52.8295H156.08V34.5057H159.911V36.6364C160.508 35.8693 161.359 35.2727 162.296 34.8466C163.232 34.4205 164.254 34.25 165.361 34.25C166.809 34.1648 168.171 34.5057 169.278 35.1023Z" fill="#575756"/>
<path d="M194.397 45.0739H180.433C180.518 46.5227 181.114 47.7159 182.05 48.5682C182.987 49.4205 184.264 49.9318 185.627 49.9318C187.67 49.9318 189.118 49.0795 189.969 47.375H194.057C193.46 49.0795 192.524 50.4432 191.076 51.5511C189.629 52.6591 187.841 53.1705 185.712 53.1705C183.924 53.1705 182.391 52.7443 181.029 51.9773C179.666 51.2102 178.559 50.1023 177.793 48.6534C177.027 47.2045 176.601 45.5852 176.601 43.7102C176.601 41.8352 176.941 40.1307 177.708 38.767C178.474 37.3182 179.581 36.2102 180.943 35.4432C182.306 34.6761 183.924 34.25 185.712 34.25C187.415 34.25 188.948 34.5909 190.31 35.358C191.672 36.125 192.694 37.1477 193.46 38.5114C194.227 39.875 194.567 41.4091 194.567 43.1989C194.482 43.8807 194.482 44.4773 194.397 45.0739ZM190.565 42.0057C190.565 40.642 190.054 39.4489 189.033 38.6818C188.096 37.8295 186.819 37.4034 185.371 37.4034C184.094 37.4034 182.987 37.8295 182.05 38.6818C181.114 39.5341 180.603 40.642 180.347 42.0909H190.565V42.0057Z" fill="#575756"/>
<path d="M204.275 34.9318C205.211 34.4205 206.318 34.1648 207.51 34.1648V38.0852H206.574C205.126 38.0852 203.934 38.4261 203.168 39.1932C202.401 39.9602 202.061 41.2386 202.061 43.1136V52.7443H198.229V34.5057H202.061V37.1477C202.572 36.2102 203.338 35.5284 204.275 34.9318Z" fill="#575756"/>
<path d="M222.156 35.017C223.263 35.6136 224.114 36.2955 224.71 37.1477V34.5057H228.542V53.1705C228.542 54.875 228.202 56.3239 227.52 57.6875C226.839 58.9659 225.817 60.0739 224.455 60.8409C223.093 61.608 221.475 61.9489 219.687 61.9489C217.217 61.9489 215.174 61.3523 213.471 60.2443C211.853 59.0511 210.916 57.517 210.661 55.4716H214.407C214.663 56.4091 215.344 57.1761 216.281 57.7727C217.217 58.3693 218.324 58.625 219.687 58.625C221.219 58.625 222.411 58.1989 223.433 57.2614C224.37 56.3239 224.881 54.9602 224.881 53.1705V50.1023C224.2 50.9545 223.348 51.7216 222.241 52.3182C221.134 52.9148 219.857 53.1705 218.495 53.1705C216.877 53.1705 215.429 52.7443 214.152 51.9773C212.875 51.2102 211.768 50.017 211.001 48.5682C210.235 47.1193 209.894 45.5 209.894 43.625C209.894 41.75 210.235 40.1307 211.001 38.767C211.768 37.3182 212.79 36.2102 214.152 35.4432C215.429 34.6761 216.962 34.25 218.495 34.25C219.772 34.1648 221.049 34.5057 222.156 35.017ZM223.944 40.3011C223.433 39.3636 222.752 38.6818 221.901 38.1705C221.049 37.6591 220.112 37.4034 219.176 37.4034C218.239 37.4034 217.302 37.6591 216.451 38.0852C215.599 38.5966 214.918 39.2784 214.407 40.2159C213.896 41.1534 213.641 42.2614 213.641 43.4545C213.641 44.733 213.896 45.8409 214.407 46.7784C214.918 47.7159 215.599 48.483 216.451 48.9943C217.302 49.5057 218.239 49.7614 219.176 49.7614C220.112 49.7614 221.049 49.5057 221.901 48.9943C222.752 48.483 223.433 47.8011 223.944 46.8636C224.455 45.9261 224.71 44.8182 224.71 43.5398C224.71 42.3466 224.455 41.2386 223.944 40.3011Z" fill="#575756"/>
<path d="M250 34.5057L238.76 61.4375H234.843L238.59 52.4886L231.352 34.4205H235.61L240.804 48.3977L246.168 34.4205H250V34.5057Z" fill="#575756"/>
<path d="M33.2084 3.90909L3.40599 24.3636" stroke="#E66559" stroke-width="8" stroke-miterlimit="10" stroke-linecap="round"/>
<path d="M61.3079 24.3636L33.2084 3.90909" stroke="#575756" stroke-width="8" stroke-miterlimit="10" stroke-linecap="round"/>
<path d="M33.2084 72.0909L3.40599 52.4886" stroke="#CFCDCC" stroke-width="8" stroke-miterlimit="10" stroke-linecap="round"/>
<path d="M61.3079 52.4886L33.2084 72.0909" stroke="#E73137" stroke-width="8" stroke-miterlimit="10" stroke-linecap="round"/>
<path d="M3.40599 24.3636V52.4886" stroke="#59A6C0" stroke-width="8" stroke-miterlimit="10" stroke-linecap="round"/>
<path d="M61.3079 24.3636V52.4886" stroke="#3EA397" stroke-width="8" stroke-miterlimit="10" stroke-linecap="round"/>
</g>
<defs>
<clipPath id="clip0_4045_5542">
<rect width="250" height="75" fill="white" transform="translate(0 0.5)"/>
</clipPath>
</defs>
</svg>
